# xmcd
#
# Track frame offsets:
#   150
#   12316
#   26300
#   34252
#   47052
#   61014
#   80709
#   91411
#   105294
#   120329
#   131670
#   145079
#   156287
#
# Disc length: 2319 seconds
#
# Revision: 0
# Processed by: cddbd v1.5.2PL0 Copyright (c) Steve Scherf et al.
# Submitted via: uFREEDB ActiveX Control 1.5
#
DISCID=9c090d0d
DTITLE=Luis Carreiro e Ze Mulatinho - quando a saudade aperta
DYEAR=1900
DGENRE=Country
TTITLE0=saudade
TTITLE1=barriga verde
TTITLE2=apaixonado
TTITLE3=pescaria
TTITLE4=rodeio
TTITLE5=pra cada um
TTITLE6=rei do pagode
TTITLE7=caminho de Deus
TTITLE8=amor insensato
TTITLE9=flor perfumada
TTITLE10=balanco do pagode
TTITLE11=estou chegando
TTITLE12=birigui
EXTD=
EXTT0=
EXTT1=
EXTT2=
EXTT3=
EXTT4=
EXTT5=
EXTT6=
EXTT7=
EXTT8=
EXTT9=
EXTT10=
EXTT11=
EXTT12=
PLAYORDER=
